<svg xmlns="http://www.w3.org/2000/svg" width="28" height="34" viewBox="0 0 28 34"><path d="M2.031 11.026c-1.121 0-2.03.928-2.031 2.073v8.709c0 1.144.91 2.072 2.031 2.072 1.122 0 2.03-.928 2.031-2.072v-8.709c0-1.145-.91-2.073-2.03-2.073m25.93 2.073c0-1.145-.91-2.073-2.031-2.073-1.122 0-2.03.928-2.031 2.073v8.709c0 1.144.91 2.072 2.03 2.072 1.122 0 2.032-.928 2.032-2.072v-8.709zm-23.071-1.71h-.1v13.667c0 1.14.913 2.073 2.03 2.073h1.712v4.764c0 1.145.91 2.073 2.031 2.073 1.122 0 2.03-.928 2.031-2.073V27.13h2.772v4.764c0 1.145.91 2.073 2.03 2.073 1.122 0 2.032-.928 2.032-2.073V27.13h1.712c1.117 0 2.03-.933 2.03-2.073V11.388H4.892zm4.91-5.806c.476 0 .862.394.862.88a.872.872 0 0 1-.863.882.872.872 0 0 1-.863-.881c0-.487.386-.881.863-.881zm8.36 0c.478 0 .864.394.864.88a.872.872 0 0 1-.863.882.872.872 0 0 1-.863-.881c0-.487.386-.881.863-.881zm4.994 5.08v-1a7.66 7.66 0 0 0-.125-.838c-.503-2.431-2.165-4.49-4.444-5.687l1.402-2.64a.34.34 0 0 0-.133-.457.326.326 0 0 0-.447.135l-1.42 2.675a9.918 9.918 0 0 0-3.99-.827c-1.44 0-2.804.301-4.017.838L8.555.176a.327.327 0 0 0-.448-.135.34.34 0 0 0-.133.457l1.41 2.654C7.21 4.301 5.604 6.236 5.034 8.53a7.65 7.65 0 0 0-.221 2.133h18.342z" fill="#FFF" fill-rule="evenodd"/></svg>