<svg xmlns="http://www.w3.org/2000/svg" width="28" height="35" viewBox="0 0 28 35"><path d="M23.18 18.386c-.039-4.3 3.52-6.39 3.683-6.488-2.016-2.939-5.14-3.34-6.237-3.372-2.624-.276-5.169 1.57-6.506 1.57-1.363 0-3.42-1.543-5.639-1.498-2.854.044-5.525 1.697-6.99 4.263C-1.53 18.094.724 25.783 3.62 30.013c1.449 2.071 3.141 4.384 5.357 4.303 2.167-.09 2.977-1.382 5.593-1.382 2.591 0 3.352 1.382 5.611 1.33 2.326-.038 3.79-2.081 5.189-4.171 1.674-2.374 2.346-4.713 2.373-4.833-.055-.018-4.518-1.722-4.562-6.874zM18.912 5.744c1.165-1.458 1.963-3.442 1.742-5.455-1.688.075-3.798 1.168-5.013 2.593-1.075 1.257-2.035 3.316-1.787 5.253 1.895.142 3.841-.956 5.058-2.391z" fill="#FFF" fill-rule="evenodd"/></svg>