<svg xmlns="http://www.w3.org/2000/svg" width="240" height="143" viewBox="0 0 240 143"><g fill="#FFF" fill-rule="evenodd"><path d="M67.02.133v142.114h105.96V.133H67.02zm52.973 26.269c.947-.004 1.832.43 2.349 1.152l9.926 13.971h9.232c1.54 0 2.789 1.133 2.791 2.534v15.347h15.638c1.021 0 1.961.508 2.45 1.324.488.817.447 1.81-.108 2.591l-9.715 13.668 6.556 8.215a2.35 2.35 0 0 1 .418 2.198c-.24.752-.85 1.361-1.65 1.65l-13.589 4.876v9.268c-.002.86-.482 1.66-1.275 2.126a3.028 3.028 0 0 1-2.653.185L124.01 98.86h-1.219v17.119h-5.582v-17.12h-1.219l-16.353 6.648a3.028 3.028 0 0 1-2.653-.185c-.793-.467-1.273-1.267-1.275-2.126v-9.268L82.12 89.052c-.8-.289-1.41-.898-1.65-1.65a2.353 2.353 0 0 1 .418-2.198l6.556-8.215-9.715-13.668a2.344 2.344 0 0 1-.107-2.59c.488-.817 1.428-1.325 2.449-1.325h15.638V44.059c.002-1.4 1.252-2.535 2.791-2.534h9.232l9.926-13.97c.514-.72 1.393-1.153 2.335-1.153zM.09.133h61.347v142.114H.09V.133zm178.473 0h61.347v142.114h-61.347z"/></g></svg>