<svg id="Layer_2" data-name="Layer 2" xmlns="http://www.w3.org/2000/svg" viewBox="0 0 41 25"><defs><style>.cls-1{fill:#fff}.cls-2{clip-path:url(#clip-path)}.cls-3{fill:#222}</style><clipPath id="clip-path"><path class="cls-1" d="M0 0h41v25H0z"/></clipPath></defs><title>Artboard 1</title><path class="cls-1" d="M0 0h41v25H0z"/><g class="cls-2"><path class="cls-3" d="M22 15v21h1V17.77l18.13 10.47.5-.87L23 16.62V16h6.93l13.7 7.91.5-.87L31.93 16H45v-1H22zm-4-4v-21h-1V7.38L.58-2.1l-.5.87L17 8.54V10h-5.46L-1.92 2.23l-.5.87L9.54 10H-1v1h19zm4 0h23v-1H32.17l11.96-6.9-.5-.87L30.18 10H23v-.48L41.63-1.23l-.5-.87L23 8.37V-10h-1v21zm-4 4H-1v1H9.78l-12.2 7.04.5.87L11.78 16H17v1.61L.08 27.37l.5.87L17 18.76V36h1V15z"/><path class="cls-1" d="M22 11V0h-4v11H6v4h12v13h4V15h12v-4H22z"/></g></svg>