<svg width="32" height="32" viewBox="0 0 32 32" xmlns="http://www.w3.org/2000/svg"><title>Header</title><g fill="none" fill-rule="evenodd"><circle fill="#000" cx="16" cy="16" r="16"/><path d="M25.067 12.15a9.99 9.99 0 0 1 .727-1.09 2.31 2.31 0 0 1 .5-.5c.156-.107.392-.226.706-.36V10h-4.732v.2c.276.066.484.137.622.21.138.074.264.183.377.33.314.413.472 1.007.472 1.78 0 .68-.13 1.467-.387 2.36a21.763 21.763 0 0 1-1.103 2.92l-.471 1.02-2.356-5.94a6.996 6.996 0 0 1-.273-.86c-.07-.28-.104-.5-.104-.66 0-.653.339-1.04 1.018-1.16V10h-6.825v.2c.239.04.425.09.556.15.132.06.249.143.349.25.289.307.597.86.924 1.66l1.112 2.76-1.923 4.1-2.94-7.16c-.113-.28-.17-.527-.17-.74 0-.253.06-.457.179-.61.12-.153.317-.29.594-.41V10H5v.2c.364.107.647.217.848.33.201.113.39.283.565.51.214.267.447.62.698 1.06.252.44.465.874.641 1.3L12.258 24l4.016-8.64L19.817 24l4.6-10.56c.189-.44.406-.87.65-1.29z" fill="#FFF"/></g></svg>