<svg xmlns="http://www.w3.org/2000/svg" width="241" height="143" viewBox="0 0 241 143" xmlns:xlink="http://www.w3.org/1999/xlink"><defs><path id="a" d="M0 0H244V142.995H0z"/></defs><g fill="none" fill-rule="evenodd" transform="translate(-3)"><mask id="b" fill="#fff"><use xlink:href="#a"/></mask><path fill="#FFF" d="M0 .892V77.155h267.832V66.26h-160.7V55.365h160.7V44.471h-160.7V33.576h160.7V22.681h-160.7V11.787h160.7V.892H0zm8.971 3.624l.987 3.036 3.15.033-2.531 1.896.944 3.06-2.552-1.866-2.567 1.86.953-3.047-2.528-1.911 3.14-.03 1.004-3.041v.01zm17.826 0l.987 3.036 3.152.033-2.533 1.896.944 3.06-2.552-1.866-2.567 1.86.955-3.047-2.53-1.911 3.142-.03 1.002-3.041v.01zm17.858 0l.987 3.036 3.15.033-2.532 1.896.945 3.06-2.552-1.866-2.567 1.86.955-3.047-2.53-1.911 3.142-.03 1.002-3.041v.01zm17.826 0l.989 3.036 3.15.033-2.532 1.896.943 3.06-2.552-1.866-2.565 1.86.953-3.047-2.529-1.911 3.141-.03 1.002-3.041v.01zm17.89 0l.986 3.036 3.15.033-2.531 1.896.944 3.06-2.552-1.866-2.566 1.86.955-3.047-2.531-1.911 3.143-.03 1.002-3.041v.01zm17.826 0l.989 3.036 3.149.033-2.531 1.896.942 3.06-2.552-1.866-2.564 1.86.953-3.047-2.529-1.911 3.14-.03 1.003-3.041v.01zm-80.352 7.59l.987 3.036 3.15.033-2.532 1.896.945 3.06-2.552-1.866-2.567 1.86.955-3.047-2.53-1.911 3.14-.03 1.004-3.041v.01zm17.826 0l.99 3.036 3.148.033-2.53 1.896.942 3.06-2.552-1.866-2.565 1.86.953-3.047-2.528-1.911 3.14-.03 1.002-3.041v.01zm17.858 0l.989 3.036 3.15.033-2.532 1.896.943 3.06-2.552-1.866-2.565 1.86.953-3.047-2.53-1.911 3.142-.03 1.002-3.041v.01zm17.828 0l.987 3.036 3.15.033-2.532 1.896.945 3.06-2.552-1.866-2.567 1.86.953-3.047-2.529-1.911 3.141-.03 1.004-3.041v.01zm17.887 0l.99 3.036 3.149.033-2.531 1.896.942 3.06-2.552-1.866-2.565 1.86.954-3.047-2.531-1.911 3.143-.03 1.001-3.041v.01zM8.971 19.751l.987 3.037 3.15.033-2.531 1.896.944 3.06L8.97 25.91l-2.567 1.86.953-3.047-2.528-1.91 3.14-.03 1.004-3.042v.01zm17.826 0l.987 3.037 3.152.033-2.533 1.896.944 3.06-2.552-1.867-2.567 1.86.955-3.047-2.53-1.91 3.142-.03 1.002-3.042v.01zm17.858 0l.987 3.037 3.15.033-2.532 1.896.945 3.06-2.552-1.867-2.567 1.86.955-3.047-2.53-1.91 3.142-.03 1.002-3.042v.01zm17.826 0l.989 3.037 3.15.033-2.532 1.896.943 3.06-2.552-1.867-2.565 1.86.953-3.047-2.529-1.91 3.141-.03 1.002-3.042v.01zm17.89 0l.986 3.037 3.15.033-2.531 1.896.944 3.06-2.552-1.867-2.566 1.86.955-3.047-2.531-1.91 3.143-.03 1.002-3.042v.01zm17.826 0l.989 3.037 3.149.033-2.531 1.896.942 3.06-2.552-1.867-2.564 1.86.953-3.047-2.529-1.91 3.14-.03 1.003-3.042v.01zm-80.352 7.59l.987 3.039 3.15.03-2.532 1.896.945 3.06-2.552-1.867-2.567 1.86.955-3.047-2.53-1.91 3.14-.03 1.004-3.041v.01zm17.826 0l.99 3.039 3.148.03-2.53 1.896.942 3.06-2.552-1.867-2.565 1.86.953-3.047-2.528-1.91 3.14-.03 1.002-3.041v.01zm17.858 0l.989 3.039 3.15.03-2.532 1.896.943 3.06-2.552-1.867-2.565 1.86.953-3.047-2.53-1.91 3.142-.03 1.002-3.041v.01zm17.828 0l.987 3.039 3.15.03-2.532 1.896.945 3.06-2.552-1.867-2.567 1.86.953-3.047-2.529-1.91 3.141-.03 1.004-3.041v.01zm17.887 0l.99 3.039 3.149.03-2.531 1.896.942 3.06-2.552-1.867-2.565 1.86.954-3.047-2.531-1.91 3.143-.03 1.001-3.041v.01zM8.971 35.005l.987 3.036 3.15.033-2.531 1.896.944 3.06-2.552-1.866-2.567 1.86.953-3.048-2.528-1.91 3.14-.03 1.004-3.041v.01zm17.826 0l.987 3.036 3.152.033-2.533 1.896.944 3.06-2.552-1.866-2.567 1.86.955-3.048-2.53-1.91 3.142-.03 1.002-3.041v.01zm17.858 0l.987 3.036 3.15.033-2.532 1.896.945 3.06-2.552-1.866-2.567 1.86.955-3.048-2.53-1.91 3.142-.03 1.002-3.041v.01zm17.826 0l.989 3.036 3.15.033-2.532 1.896.943 3.06-2.552-1.866-2.565 1.86.953-3.048-2.529-1.91 3.141-.03 1.002-3.041v.01zm17.89 0l.986 3.036 3.15.033-2.531 1.896.944 3.06-2.552-1.866-2.566 1.86.955-3.048-2.531-1.91 3.143-.03 1.002-3.041v.01zm17.826 0l.989 3.036 3.149.033-2.531 1.896.942 3.06-2.552-1.866-2.564 1.86.953-3.048-2.529-1.91 3.14-.03 1.003-3.041v.01zm-80.352 7.59l.987 3.039 3.15.03-2.532 1.895.945 3.06-2.552-1.866-2.567 1.86.955-3.047-2.53-1.911 3.14-.03 1.004-3.041v.011zm17.826 0l.99 3.039 3.148.03-2.53 1.895.942 3.06-2.552-1.866-2.565 1.86.953-3.047-2.528-1.911 3.14-.03 1.002-3.041v.011zm17.858 0l.989 3.039 3.15.03-2.532 1.895.943 3.06-2.552-1.866-2.565 1.86.953-3.047-2.53-1.911 3.142-.03 1.002-3.041v.011zm17.828 0l.987 3.039 3.15.03-2.532 1.895.945 3.06-2.552-1.866-2.567 1.86.953-3.047-2.529-1.911 3.141-.03 1.004-3.041v.011zm17.887 0l.99 3.039 3.149.03-2.531 1.895.942 3.06-2.552-1.866-2.565 1.86.954-3.047-2.531-1.911 3.143-.03 1.001-3.041v.011zm-80.273 7.66l.987 3.037 3.15.033-2.531 1.893.944 3.06-2.552-1.866-2.567 1.86.953-3.047-2.528-1.911 3.14-.03 1.004-3.04v.011zm17.826 0l.987 3.037 3.152.033-2.533 1.893.944 3.06-2.552-1.866-2.567 1.86.955-3.047-2.53-1.911 3.142-.03 1.002-3.04v.011zm17.858 0l.987 3.037 3.15.033-2.532 1.893.945 3.06-2.552-1.866-2.567 1.86.955-3.047-2.53-1.911 3.142-.03 1.002-3.04v.011zm17.826 0l.989 3.037 3.15.033-2.532 1.893.943 3.06-2.552-1.866-2.565 1.86.953-3.047-2.529-1.911 3.141-.03 1.002-3.04v.011zm17.89 0l.986 3.037 3.15.033-2.531 1.893.944 3.06-2.552-1.866-2.566 1.86.955-3.047-2.531-1.911 3.143-.03 1.002-3.04v.011zm17.826 0l.989 3.037 3.149.033-2.531 1.893.942 3.06-2.552-1.866-2.564 1.86.953-3.047-2.529-1.911 3.14-.03 1.003-3.04v.011zm-80.352 7.59l.987 3.037 3.15.033-2.532 1.894.945 3.06L17.843 64l-2.567 1.86.955-3.047-2.53-1.911 3.14-.03 1.004-3.04v.011zm17.826 0l.99 3.037 3.148.033-2.53 1.894.942 3.06L35.669 64l-2.565 1.86.953-3.047-2.528-1.911 3.14-.03 1.002-3.04v.011zm17.858 0l.989 3.037 3.15.033-2.532 1.894.943 3.06L53.527 64l-2.565 1.86.953-3.047-2.53-1.911 3.142-.03 1.002-3.04v.011zm17.828 0l.987 3.037 3.15.033-2.532 1.894.945 3.06L71.355 64l-2.567 1.86.953-3.047-2.529-1.911 3.141-.03 1.004-3.04v.011zm17.887 0l.99 3.037 3.149.033-2.531 1.894.942 3.06L89.242 64l-2.565 1.86.954-3.047-2.531-1.911 3.143-.03 1.001-3.04v.011zM8.942 65.507l.987 3.036 3.149.033-2.531 1.894.944 3.06-2.552-1.864-2.566 1.86.953-3.05-2.53-1.91 3.142-.03 1.004-3.041v.012zm17.855 0l.987 3.036 3.152.033-2.533 1.894.944 3.06-2.552-1.864-2.567 1.86.955-3.05-2.53-1.91 3.142-.03 1.002-3.041v.012zm17.858 0l.987 3.036 3.15.033-2.532 1.894.945 3.06-2.552-1.864-2.567 1.86.955-3.05-2.53-1.91 3.142-.03 1.002-3.041v.012zm17.826 0l.989 3.036 3.15.033-2.532 1.894.943 3.06-2.552-1.864-2.565 1.86.953-3.05-2.529-1.91 3.141-.03 1.002-3.041v.012zm17.89 0l.986 3.036 3.15.033-2.531 1.894.944 3.06-2.552-1.864-2.566 1.86.955-3.05-2.531-1.91 3.143-.03 1.002-3.041v.012zm17.826 0l.989 3.036 3.149.033-2.531 1.894.942 3.06-2.552-1.864-2.564 1.86.953-3.05-2.529-1.91 3.14-.03 1.003-3.041v.012zM0 88.05v10.894h267.833V88.05H0zm0 21.789v10.895h267.833v-10.895H0zm0 21.79v10.894h267.833v-10.895H0z" transform="translate(3.405 -.363)" mask="url(#b)"/></g></svg>